<svg width="396" height="532" viewBox="0 0 396 532" fill="none" xmlns="http://www.w3.org/2000/svg">
<path fill-rule="evenodd" clip-rule="evenodd" d="M8.08022 106.847L7.98604 106.979L5.20411 297.82L110.689 384.918L74.4398 186.409L73.2026 184.605L8.08022 106.847ZM3.02512 447.299L5.18543 299.101L110.83 386.331L61.6772 481.8L3.02512 447.299ZM62.5405 482.308L136.408 525.76L111.211 387.775L62.5405 482.308ZM137.455 525.926L111.921 386.096L112 386L111.886 385.906L75.8251 188.428L226.175 407.566L226.693 407.211L233.536 521.267L137.455 525.926ZM8.67999 106.006L74 184L76.9621 10.2213L8.67999 106.006ZM226.649 406.489L75.3852 186.019L75.0015 183.918L77.9813 9.10739L213.023 179.377L222.226 332.765L222 333L222.255 333.245L226.649 406.489ZM223.318 334.267L299.009 407.047L299 518.094L234.535 521.219L223.318 334.267ZM389.003 382.604L300 517.075L300.009 407.991L300.321 407.666L389.003 382.604ZM300.084 406.694L223.229 332.795L214.031 179.48L293.921 120.049L389.586 381.4L300.084 406.694ZM79.8136 9.80849L213.629 178.532L293.52 119.101L79.8136 9.80849Z" fill="#5DFF4F"/>
<path d="M7.98604 106.979L5.5432 105.238L5 106L4.98636 106.936L7.98604 106.979ZM8.08022 106.847L10.3802 104.921L7.88929 101.947L5.63738 105.106L8.08022 106.847ZM5.20411 297.82L2.20443 297.776L2.18344 299.216L3.29401 300.133L5.20411 297.82ZM110.689 384.918L108.779 387.231L115.117 392.464L113.641 384.379L110.689 384.918ZM74.4398 186.409L77.391 185.87L77.276 185.24L76.9136 184.711L74.4398 186.409ZM73.2026 184.605L75.6763 182.908L75.5949 182.789L75.5025 182.679L73.2026 184.605ZM5.18543 299.101L7.09553 296.788L2.27683 292.809L2.18575 299.058L5.18543 299.101ZM3.02512 447.299L0.0254347 447.255L3.72813e-07 449L1.50406 449.885L3.02512 447.299ZM110.83 386.331L113.497 387.704L114.603 385.556L112.74 384.017L110.83 386.331ZM61.6772 481.8L60.1561 484.386L62.8916 485.995L64.3444 483.173L61.6772 481.8ZM136.408 525.76L134.887 528.345L140.537 531.669L139.359 525.221L136.408 525.76ZM62.5405 482.308L59.8732 480.935L58.5751 483.456L61.0194 484.894L62.5405 482.308ZM111.211 387.775L114.162 387.236L112.579 378.564L108.544 386.401L111.211 387.775ZM111.921 386.096L109.608 384.185L108.719 385.262L108.97 386.635L111.921 386.096ZM137.455 525.926L134.504 526.465L134.976 529.05L137.6 528.922L137.455 525.926ZM112 386L114.313 387.91L116.224 385.597L113.91 383.687L112 386ZM111.886 385.906L108.935 386.445L109.132 387.522L109.976 388.219L111.886 385.906ZM75.8251 188.428L78.2988 186.73L72.8739 188.967L75.8251 188.428ZM226.175 407.566L223.702 409.263L225.399 411.737L227.873 410.04L226.175 407.566ZM226.693 407.211L229.687 407.031L229.37 401.736L224.995 404.737L226.693 407.211ZM233.536 521.267L233.681 524.264L236.712 524.117L236.531 521.088L233.536 521.267ZM74 184L71.7001 185.926L76.8625 192.09L76.9996 184.051L74 184ZM8.67999 106.006L6.23715 104.265L4.89049 106.154L6.38004 107.932L8.67999 106.006ZM76.9621 10.2213L79.9617 10.2724L80.1263 0.614453L74.5193 8.47986L76.9621 10.2213ZM75.3852 186.019L72.434 186.558L72.5491 187.188L72.9115 187.716L75.3852 186.019ZM226.649 406.489L224.176 408.186L230.291 417.1L229.644 406.309L226.649 406.489ZM75.0015 183.918L72.002 183.867L71.9969 184.164L72.0503 184.457L75.0015 183.918ZM77.9813 9.10739L80.3318 7.24321L75.1245 0.677559L74.9817 9.05626L77.9813 9.10739ZM213.023 179.377L216.017 179.197L215.961 178.253L215.373 177.513L213.023 179.377ZM222.226 332.765L224.388 334.844L225.299 333.897L225.221 332.585L222.226 332.765ZM222 333L219.838 330.921L217.758 333.083L219.921 335.162L222 333ZM222.255 333.245L225.249 333.065L225.179 331.895L224.334 331.082L222.255 333.245ZM299.009 407.047L302.009 407.047L302.009 405.77L301.088 404.885L299.009 407.047ZM223.318 334.267L225.397 332.105L219.863 326.784L220.323 334.447L223.318 334.267ZM299 518.094L299.145 521.09L302 520.952L302 518.094L299 518.094ZM234.535 521.219L231.54 521.399L231.718 524.359L234.68 524.216L234.535 521.219ZM300 517.075L297 517.075L296.999 527.044L302.502 518.731L300 517.075ZM389.003 382.604L391.505 384.259L395.966 377.518L388.187 379.717L389.003 382.604ZM300.009 407.991L297.846 405.911L297.009 406.782L297.009 407.991L300.009 407.991ZM300.321 407.666L299.506 404.779L298.723 405L298.159 405.586L300.321 407.666ZM223.229 332.795L220.235 332.975L220.305 334.145L221.15 334.957L223.229 332.795ZM300.084 406.694L298.005 408.856L299.245 410.048L300.9 409.581L300.084 406.694ZM214.031 179.48L212.24 177.073L210.939 178.041L211.036 179.659L214.031 179.48ZM293.921 120.049L296.738 119.018L295.357 115.242L292.131 117.642L293.921 120.049ZM389.586 381.4L390.402 384.287L393.515 383.407L392.403 380.369L389.586 381.4ZM213.629 178.532L211.278 180.396L213.086 182.675L215.42 180.939L213.629 178.532ZM79.8136 9.80849L81.1796 7.13752L77.4631 11.6727L79.8136 9.80849ZM293.52 119.101L295.31 121.508L299.183 118.628L294.886 116.43L293.52 119.101ZM10.4289 108.721L10.5231 108.589L5.63738 105.106L5.5432 105.238L10.4289 108.721ZM8.20379 297.864L10.9857 107.023L4.98636 106.936L2.20443 297.776L8.20379 297.864ZM112.599 382.604L7.11421 295.507L3.29401 300.133L108.779 387.231L112.599 382.604ZM71.4886 186.948L107.738 385.457L113.641 384.379L77.391 185.87L71.4886 186.948ZM70.7288 186.303L71.9661 188.106L76.9136 184.711L75.6763 182.908L70.7288 186.303ZM5.78028 108.774L70.9026 186.532L75.5025 182.679L10.3802 104.921L5.78028 108.774ZM2.18575 299.058L0.0254347 447.255L6.0248 447.343L8.18511 299.145L2.18575 299.058ZM112.74 384.017L7.09553 296.788L3.27534 301.415L108.92 388.644L112.74 384.017ZM64.3444 483.173L113.497 387.704L108.163 384.957L59.0099 480.427L64.3444 483.173ZM1.50406 449.885L60.1561 484.386L63.1982 479.214L4.54618 444.713L1.50406 449.885ZM137.929 523.174L64.0615 479.722L61.0194 484.894L134.887 528.345L137.929 523.174ZM108.26 388.314L133.457 526.299L139.359 525.221L114.162 387.236L108.26 388.314ZM65.2077 483.681L113.878 389.148L108.544 386.401L59.8732 480.935L65.2077 483.681ZM108.97 386.635L134.504 526.465L140.406 525.387L114.872 385.557L108.97 386.635ZM109.687 384.09L109.608 384.185L114.234 388.006L114.313 387.91L109.687 384.09ZM109.976 388.219L110.09 388.313L113.91 383.687L113.796 383.593L109.976 388.219ZM72.8739 188.967L108.935 386.445L114.838 385.367L78.7762 187.889L72.8739 188.967ZM228.649 405.869L78.2988 186.73L73.3513 190.125L223.702 409.263L228.649 405.869ZM224.995 404.737L224.478 405.092L227.873 410.04L228.39 409.685L224.995 404.737ZM236.531 521.088L229.687 407.031L223.698 407.391L230.541 521.447L236.531 521.088ZM137.6 528.922L233.681 524.264L233.391 518.271L137.31 522.929L137.6 528.922ZM76.3 182.074L10.9799 104.08L6.38004 107.932L71.7001 185.926L76.3 182.074ZM73.9626 10.1702L71.0004 183.949L76.9996 184.051L79.9617 10.2724L73.9626 10.1702ZM11.1228 107.747L79.405 11.9627L74.5193 8.47986L6.23715 104.265L11.1228 107.747ZM72.9115 187.716L224.176 408.186L229.123 404.792L77.8589 184.322L72.9115 187.716ZM72.0503 184.457L72.434 186.558L78.3364 185.48L77.9527 183.379L72.0503 184.457ZM74.9817 9.05626L72.002 183.867L78.0011 183.969L80.9808 9.15852L74.9817 9.05626ZM215.373 177.513L80.3318 7.24321L75.6308 10.9716L210.672 181.241L215.373 177.513ZM225.221 332.585L216.017 179.197L210.028 179.557L219.231 332.945L225.221 332.585ZM224.162 335.079L224.388 334.844L220.063 330.686L219.838 330.921L224.162 335.079ZM224.334 331.082L224.079 330.838L219.921 335.162L220.175 335.407L224.334 331.082ZM229.644 406.309L225.249 333.065L219.26 333.425L223.655 406.669L229.644 406.309ZM301.088 404.885L225.397 332.105L221.238 336.43L296.93 409.21L301.088 404.885ZM302 518.094L302.009 407.047L296.009 407.047L296 518.093L302 518.094ZM234.68 524.216L299.145 521.09L298.855 515.097L234.39 518.223L234.68 524.216ZM220.323 334.447L231.54 521.399L237.53 521.039L226.312 334.087L220.323 334.447ZM302.502 518.731L391.505 384.259L386.501 380.948L297.499 515.419L302.502 518.731ZM297.009 407.991L297 517.075L303 517.075L303.009 407.991L297.009 407.991ZM298.159 405.586L297.846 405.911L302.171 410.07L302.484 409.745L298.159 405.586ZM388.187 379.717L299.506 404.779L301.137 410.553L389.819 385.49L388.187 379.717ZM221.15 334.957L298.005 408.856L302.163 404.531L225.309 330.632L221.15 334.957ZM211.036 179.659L220.235 332.975L226.224 332.615L217.025 179.3L211.036 179.659ZM292.131 117.642L212.24 177.073L215.821 181.887L295.712 122.456L292.131 117.642ZM392.403 380.369L296.738 119.018L291.104 121.08L386.768 382.431L392.403 380.369ZM300.9 409.581L390.402 384.287L388.77 378.513L299.268 403.807L300.9 409.581ZM215.979 176.668L82.1641 7.94431L77.4631 11.6727L211.278 180.396L215.979 176.668ZM291.729 116.694L211.838 176.125L215.42 180.939L295.31 121.508L291.729 116.694ZM78.4477 12.4795L292.154 121.772L294.886 116.43L81.1796 7.13752L78.4477 12.4795Z" fill="black"/>
</svg>
