<svg width="401" height="532" viewBox="0 0 401 532" fill="none" xmlns="http://www.w3.org/2000/svg">
<path fill-rule="evenodd" clip-rule="evenodd" d="M80.0604 0.149902L302.413 113.864L400.338 381.392L306.663 522.923L139.251 531.04L0.974884 449.701L6.01396 104.021L80.0604 0.149902ZM11.986 105.979L12.0802 105.847L77.2026 183.605L78.4398 185.409L114.689 383.918L9.20411 296.82L11.986 105.979ZM9.18543 298.101L7.02512 446.299L65.6772 480.8L114.83 385.331L9.18543 298.101ZM140.408 524.76L66.5405 481.308L115.211 386.775L140.408 524.76ZM115.921 385.096L141.455 524.926L237.536 520.267L230.693 406.211L230.175 406.566L79.8251 187.428L115.886 384.906L116 385L115.921 385.096ZM78 183L12.68 105.006L80.9621 9.22128L78 183ZM79.3852 185.019L230.649 405.489L226.255 332.245L226 332L226.226 331.765L217.023 178.377L81.9813 8.10739L79.0015 182.918L79.3852 185.019ZM303.009 406.047L227.318 333.267L238.535 520.219L303 517.094L303.009 406.047ZM304 516.075L393.003 381.604L304.321 406.666L304.009 406.991L304 516.075ZM227.229 331.795L304.084 405.694L393.586 380.4L297.921 119.049L218.031 178.48L227.229 331.795ZM217.629 177.532L83.8136 8.80849L297.52 118.101L217.629 177.532Z" fill="black"/>
</svg>
